<svg xmlns="http://www.w3.org/2000/svg" xmlns:xlink="http://www.w3.org/1999/xlink" style="vertical-align:-.755ex" width="38.707ex" height="2.634ex" viewBox="0 -809.3 16665.6 1134.2"><defs><path id="f" stroke-width="1" d="M78 60q0 24 17 42t43 18q24 0 42-16t19-43q0-25-17-43T139 0 96 17 78 60z"/><path id="a" stroke-width="1" d="M94 250q0 69 10 131t23 107 37 88 38 67 42 52 33 34 25 21h17q14 0 14-9 0-3-17-21t-41-53-49-86-42-138-17-193 17-192 41-139 49-86 42-53 17-21q0-9-15-9h-16l-28 24q-94 85-137 212T94 250z"/><path id="c" stroke-width="1" d="M213 578l-13-5q-14-5-40-10t-58-7H83v46h19q47 2 87 15t56 24 28 22q2 3 12 3 9 0 17-6V361l1-300q7-7 12-9t24-4 62-2h26V0h-11q-21 3-159 3-136 0-157-3H88v46h64q16 0 25 1t16 3 8 2 6 5 6 4v517z"/><path id="d" stroke-width="1" d="M78 35v25l16 43 43 18q28 0 50-25t23-88q0-35-9-68t-21-57-26-41-24-27-13-9q-4 0-13 9t-9 13q0 4 11 16t25 30 26 50 16 73V9l-1-1q-2-1-5-2t-6-3-9-2-12-1q-27 0-44 17z"/><path id="e" stroke-width="1" d="M109 429q-27 0-43 18t-16 44q0 71 53 123t132 52q91 0 152-56t62-145q0-43-20-82t-48-68-80-74q-36-31-100-92l-59-56 76-1q157 0 167 5 7 2 24 89v3h40v-3q-1-3-13-91T421 3V0H50v31q0 7 6 15t30 35q29 32 50 56 9 10 34 37t34 37 29 33 28 34 23 30 21 32 15 29 13 32 7 30 3 33q0 63-34 109t-97 46q-33 0-58-17t-35-33-10-19q0-1 5-1 18 0 37-14t19-46q0-25-16-42t-45-18z"/><path id="b" stroke-width="1" d="M59-194H49q-18 0-21 12 0 4 79 321t85 334q20 60 56 107t76 72 71 37 55 12h11q53 0 90-13t54-36 25-45 7-46q0-15-3-35t-23-61-55-72q16-11 34-46t18-85q0-116-86-193T299-8q-20 0-38 2t-33 8-24 11-21 13-14 11-12 11l-7 8-30-120q-7-26-16-64-11-47-15-56t-16-10H59zm472 786q0 59-68 59-64 0-122-51t-88-134q-3-8-36-139t-35-142q-2-9-2-26 0-51 32-83t89-32q29 0 53 7t39 14 30 26 21 27 15 33 9 28 7 27q15 58 16 90 0 17-2 30t-5 19l-2 5q-1 0-5-2t-13-4-20-4-31-5-41-2-38 1-33 6-27 15-9 25q0 64 132 64 28 0 48-3t31-5l9-3q4 0 14 25 10 24 21 69t11 65zM424 390q0 3-35 3h-15q-9 0-12-1-14 0-29-4 12-4 46-4 45 0 45 6z"/><path id="g" stroke-width="1" d="M21 287q1 6 3 16t12 38 20 47 33 37 46 17q36 0 60-18t30-34 6-21q0-2 1-2l11 11q61 64 139 64 54 0 87-27t34-79-38-157-38-127q0-26 17-26 6 0 9 1 29 5 52 38t35 80q2 8 20 8 20 0 20-8 0-1-4-15-8-29-22-57t-46-56-69-27q-47 0-68 27t-21 56q0 19 36 120t37 152q0 59-44 59h-5q-86 0-145-101l-7-12-33-134Q156 26 151 16q-13-27-43-27-13 0-21 6T76 7t-2 10q0 13 38 163t40 163q1 5 1 23 0 39-24 39-38 0-63-100-6-20-6-21-2-6-19-6H27q-6 6-6 9z"/><path id="h" stroke-width="1" d="M60 749l4 1h22l28-24q94-85 137-212t43-264q0-68-10-131T261 12t-37-88-38-67-41-51-32-33-23-19l-4-4H63q-3 0-5 3t-3 9q1 1 11 13Q221-64 221 250T66 725q-10 12-11 13 0 8 5 11z"/><path id="i" stroke-width="1" d="M56 347q0 13 14 20h637q15-8 15-20 0-11-14-19l-318-1H72q-16 5-16 20zm0-194q0 15 16 20h636q14-10 14-20 0-13-15-20H70q-14 7-14 20z"/><path id="j" stroke-width="1" d="M39 166q0 47 20 95t58 92 102 71 143 28q58 0 104-19t70-49 37-59 13-56v-4q7 7 23 43t27 73q4 16 8 18t25 3h11q20 0 20-14 0-9-9-37t-32-75-55-88l-11-15 2-20q5-74 17-110h6q16 2 24 8t11 13 5 7q3 2 26 2 28 0 28-14 0-20-27-43T603-7q-15 0-28 2t-24 7-19 10-16 12-13 13-9 12-7 11-6 9l-12-8Q362-8 251-8 159-8 99 36T39 166zM260 43q50 0 101 20t77 38 27 23q-7 116-12 153-18 124-99 124-63 0-109-46-15-18-28-42-16-34-31-97t-16-90q0-54 38-72 22-11 52-11z"/><path id="k" stroke-width="1" d="M380-17q-45 0-87 7t-86 26-77 49-54 79-21 112q0 50 15 105t52 115 89 106 134 81 180 39h20q128 0 186-68l46 34q6 4 12 9t11 8 8 6 6 4 4 3 4 2 3 2 3 1 2 0 3 0q22 0 22-13 0-4-32-132t-34-132q-3-5-7-6t-26-1q-22 1-27 2t-5 11q0 2 1 15t1 25q0 80-48 132-38 36-92 36h-12q-41 0-80-8t-85-28-85-63-64-104q-17-40-33-104t-17-114q0-67 27-102 18-27 62-49t121-22h9q77 0 151 54t98 134q5 15 9 17t25 3h11q20 0 20-14 0-8-7-27t-26-51-47-62-77-60T477-5q-44-12-97-12z"/></defs><g fill="currentColor" stroke="currentColor" stroke-width="0" transform="scale(1 -1)"><use xlink:href="#a"/><g transform="translate(389)"><use xlink:href="#b"/><use x="934" y="-213" transform="scale(.707)" xlink:href="#c"/></g><use x="1503" xlink:href="#d"/><g transform="translate(1949)"><use xlink:href="#b"/><use x="934" y="-213" transform="scale(.707)" xlink:href="#e"/></g><use x="3063" xlink:href="#d"/><use x="3508" xlink:href="#f"/><use x="3953" xlink:href="#f"/><use x="4398" xlink:href="#f"/><use x="4844" xlink:href="#d"/><g transform="translate(5289)"><use xlink:href="#b"/><use x="934" y="-213" transform="scale(.707)" xlink:href="#g"/></g><use x="6474" xlink:href="#h"/><use x="7141" xlink:href="#i"/><g transform="translate(8197)"><use xlink:href="#a"/><g transform="translate(389)"><use xlink:href="#j"/><use x="1076" y="-213" transform="scale(.707)" xlink:href="#c"/></g><use x="1604" xlink:href="#d"/><g transform="translate(2050)"><use xlink:href="#j"/><use x="1076" y="-213" transform="scale(.707)" xlink:href="#e"/></g><use x="3265" xlink:href="#d"/><use x="3710" xlink:href="#f"/><use x="4155" xlink:href="#f"/><use x="4600" xlink:href="#f"/><use x="5046" xlink:href="#d"/><g transform="translate(5491)"><use xlink:href="#j"/><use x="1076" y="-213" transform="scale(.707)" xlink:href="#g"/></g><use x="6777" xlink:href="#h"/></g><use x="15531" xlink:href="#k"/><use x="16387" xlink:href="#d"/></g></svg>