<svg xmlns="http://www.w3.org/2000/svg" xmlns:xlink="http://www.w3.org/1999/xlink" style="vertical-align:-.755ex" width="20.334ex" height="2.634ex" viewBox="0 -809.3 8755 1134.2"><defs><path id="a" stroke-width="1" d="M139-249h-2q-12 0-18 14v486l1 486q10 13 19 13 13 0 20-15v-970q-8-14-18-14h-2z"/><path id="b" stroke-width="1" d="M59-194H49q-18 0-21 12 0 4 79 321t85 334q20 60 56 107t76 72 71 37 55 12h11q53 0 90-13t54-36 25-45 7-46q0-15-3-35t-23-61-55-72q16-11 34-46t18-85q0-116-86-193T299-8q-20 0-38 2t-33 8-24 11-21 13-14 11-12 11l-7 8-30-120q-7-26-16-64-11-47-15-56t-16-10H59zm472 786q0 59-68 59-64 0-122-51t-88-134q-3-8-36-139t-35-142q-2-9-2-26 0-51 32-83t89-32q29 0 53 7t39 14 30 26 21 27 15 33 9 28 7 27q15 58 16 90 0 17-2 30t-5 19l-2 5q-1 0-5-2t-13-4-20-4-31-5-41-2-38 1-33 6-27 15-9 25q0 64 132 64 28 0 48-3t31-5l9-3q4 0 14 25 10 24 21 69t11 65zM424 390q0 3-35 3h-15q-9 0-12-1-14 0-29-4 12-4 46-4 45 0 45 6z"/><path id="c" stroke-width="1" d="M213 578l-13-5q-14-5-40-10t-58-7H83v46h19q47 2 87 15t56 24 28 22q2 3 12 3 9 0 17-6V361l1-300q7-7 12-9t24-4 62-2h26V0h-11q-21 3-159 3-136 0-157-3H88v46h64q16 0 25 1t16 3 8 2 6 5 6 4v517z"/><path id="d" stroke-width="1" d="M78 35v25l16 43 43 18q28 0 50-25t23-88q0-35-9-68t-21-57-26-41-24-27-13-9q-4 0-13 9t-9 13q0 4 11 16t25 30 26 50 16 73V9l-1-1q-2-1-5-2t-6-3-9-2-12-1q-27 0-44 17z"/><path id="e" stroke-width="1" d="M109 429q-27 0-43 18t-16 44q0 71 53 123t132 52q91 0 152-56t62-145q0-43-20-82t-48-68-80-74q-36-31-100-92l-59-56 76-1q157 0 167 5 7 2 24 89v3h40v-3q-1-3-13-91T421 3V0H50v31q0 7 6 15t30 35q29 32 50 56 9 10 34 37t34 37 29 33 28 34 23 30 21 32 15 29 13 32 7 30 3 33q0 63-34 109t-97 46q-33 0-58-17t-35-33-10-19q0-1 5-1 18 0 37-14t19-46q0-25-16-42t-45-18z"/><path id="f" stroke-width="1" d="M78 60q0 24 17 42t43 18q24 0 42-16t19-43q0-25-17-43T139 0 96 17 78 60z"/><path id="g" stroke-width="1" d="M21 287q1 6 3 16t12 38 20 47 33 37 46 17q36 0 60-18t30-34 6-21q0-2 1-2l11 11q61 64 139 64 54 0 87-27t34-79-38-157-38-127q0-26 17-26 6 0 9 1 29 5 52 38t35 80q2 8 20 8 20 0 20-8 0-1-4-15-8-29-22-57t-46-56-69-27q-47 0-68 27t-21 56q0 19 36 120t37 152q0 59-44 59h-5q-86 0-145-101l-7-12-33-134Q156 26 151 16q-13-27-43-27-13 0-21 6T76 7t-2 10q0 13 38 163t40 163q1 5 1 23 0 39-24 39-38 0-63-100-6-20-6-21-2-6-19-6H27q-6 6-6 9z"/><path id="h" stroke-width="1" d="M56 347q0 13 14 20h637q15-8 15-20 0-11-14-19l-318-1H72q-16 5-16 20zm0-194q0 15 16 20h636q14-10 14-20 0-13-15-20H70q-14 7-14 20z"/><path id="i" stroke-width="1" d="M96 585q56 81 153 81 48 0 96-26t78-92q37-83 37-228 0-155-43-237-20-42-55-67t-61-31-51-7q-26 0-52 6t-61 32-55 67q-43 82-43 237 0 174 57 265zm225 12q-30 32-71 32-42 0-72-32-25-26-33-72t-8-192q0-158 8-208t36-79q28-30 69-30 40 0 68 30 29 30 36 84t8 203q0 145-8 191t-33 73z"/></defs><g fill="currentColor" stroke="currentColor" stroke-width="0" transform="scale(1 -1)"><use xlink:href="#a"/><g transform="translate(278)"><use xlink:href="#b"/><use x="934" y="-213" transform="scale(.707)" xlink:href="#c"/><use x="1114" xlink:href="#d"/><g transform="translate(1559)"><use xlink:href="#b"/><use x="934" y="-213" transform="scale(.707)" xlink:href="#e"/></g><use x="2673" xlink:href="#d"/><use x="3119" xlink:href="#f"/><use x="3564" xlink:href="#f"/><use x="4009" xlink:href="#f"/><use x="4454" xlink:href="#d"/><g transform="translate(4899)"><use xlink:href="#b"/><use x="934" y="-213" transform="scale(.707)" xlink:href="#g"/></g></g><use x="6363" xlink:href="#a"/><use x="6919" xlink:href="#h"/><use x="7975" xlink:href="#i"/><use x="8476" xlink:href="#d"/></g></svg>