<svg xmlns="http://www.w3.org/2000/svg" xmlns:xlink="http://www.w3.org/1999/xlink" style="vertical-align:-.255ex" width="1.987ex" height="2.134ex" viewBox="0 -809.3 855.5 918.9"><defs><path id="a" stroke-width="1" d="M380-17q-45 0-87 7t-86 26-77 49-54 79-21 112q0 50 15 105t52 115 89 106 134 81 180 39h20q128 0 186-68l46 34q6 4 12 9t11 8 8 6 6 4 4 3 4 2 3 2 3 1 2 0 3 0q22 0 22-13 0-4-32-132t-34-132q-3-5-7-6t-26-1q-22 1-27 2t-5 11q0 2 1 15t1 25q0 80-48 132-38 36-92 36h-12q-41 0-80-8t-85-28-85-63-64-104q-17-40-33-104t-17-114q0-67 27-102 18-27 62-49t121-22h9q77 0 151 54t98 134q5 15 9 17t25 3h11q20 0 20-14 0-8-7-27t-26-51-47-62-77-60T477-5q-44-12-97-12z"/></defs><use fill="currentColor" stroke="currentColor" stroke-width="0" transform="scale(1 -1)" xlink:href="#a"/></svg>