<svg xmlns="http://www.w3.org/2000/svg" xmlns:xlink="http://www.w3.org/1999/xlink" style="vertical-align:-.255ex" width="4.346ex" height="2.509ex" viewBox="0 -970.7 1871.3 1080.4"><defs><path id="a" stroke-width="1" d="M380-17q-45 0-87 7t-86 26-77 49-54 79-21 112q0 50 15 105t52 115 89 106 134 81 180 39h20q128 0 186-68l46 34q6 4 12 9t11 8 8 6 6 4 4 3 4 2 3 2 3 1 2 0 3 0q22 0 22-13 0-4-32-132t-34-132q-3-5-7-6t-26-1q-22 1-27 2t-5 11q0 2 1 15t1 25q0 80-48 132-38 36-92 36h-12q-41 0-80-8t-85-28-85-63-64-104q-17-40-33-104t-17-114q0-67 27-102 18-27 62-49t121-22h9q77 0 151 54t98 134q5 15 9 17t25 3h11q20 0 20-14 0-8-7-27t-26-51-47-62-77-60T477-5q-44-12-97-12z"/><path id="b" stroke-width="1" d="M84 237v13l14 20h581q15-8 15-20t-15-20H98q-14 7-14 20z"/><path id="c" stroke-width="1" d="M213 578l-13-5q-14-5-40-10t-58-7H83v46h19q47 2 87 15t56 24 28 22q2 3 12 3 9 0 17-6V361l1-300q7-7 12-9t24-4 62-2h26V0h-11q-21 3-159 3-136 0-157-3H88v46h64q16 0 25 1t16 3 8 2 6 5 6 4v517z"/></defs><g fill="currentColor" stroke="currentColor" stroke-width="0" transform="scale(1 -1)"><use xlink:href="#a"/><g transform="matrix(.707 0 0 .707 866 412)"><use xlink:href="#b"/><use x="778" xlink:href="#c"/></g></g></svg>